<svg version="1.1" xmlns="http://www.w3.org/2000/svg" width="100" height="32" viewBox="0 0 100 32">
<title>go-it</title>
<path d="M0 16v15h44l5.85-7.35 5.9-7.35 0.3 14.7h43.95v-30h-43.95l-0.3 14.7-5.9-7.35-5.85-7.35h-44v15zM20.75 10.2l1.25 0.85-1.1 1.45c-1 1.4-1.15 1.45-2.2 0.75-1.65-1.1-3.050-0.95-4.45 0.5-1.5 1.5-1.55 2.7-0.2 4.45 1.2 1.5 4.45 1.9 4.45 0.55 0-0.45-0.45-0.75-1.25-0.75-1.1 0-1.25-0.2-1.25-1.75v-1.8l6.25 0.3v2.95c0 2.6-0.15 3.050-1.3 3.95-3.1 2.3-8.55 1.4-10.45-1.75-2.4-4-0.5-9.35 3.75-10.55 1.7-0.5 5.15 0 6.5 0.85zM34.8 9.8c5 2.35 5.4 8.95 0.75 12.050-3.3 2.2-8.25 1.050-10.15-2.4-1.3-2.3-1-6 0.65-7.8 2.4-2.55 5.7-3.3 8.75-1.85zM73.5 15.75v6.75h-3.5v-13.5h3.5v6.75zM88.5 10.75c0 1.7-0.050 1.75-2 1.75h-2v10h-3.5v-10h-2c-1.95 0-2-0.050-2-1.75v-1.75h11.5v1.75z"></path>
<path d="M29.5 13.5c-2.15 2.15-0.75 6 2.15 6 3.15 0 4.5-4 2.050-5.95-1.65-1.3-2.9-1.35-4.2-0.050z"></path>
</svg>
